<svg version="1" xmlns="http://www.w3.org/2000/svg" width="5689.333" height="5689.333" viewBox="0 0 4267.000000 4267.000000"><path d="M844.9 1170c-.1 7.2-.1 1927.9 0 1934.7l.1 5.3h942.7v-188l-4.6-.1c-2.5 0-170.9-.1-374.3-.1l-369.6-.1v-876.1c-.1-481.9-.1-877.2-.1-878.6l-.1-2.5H845l-.1 5.5zM2659.7 1633.6c-.1.1-9.6.5-21.2.8-11.5.4-22.3.8-24 1-1.6.2-7.6.7-13.3 1.1-5.7.3-11.2.8-12.1 1-1 .2-5.4.6-9.7 1-4.3.4-8.8.9-9.9 1.1-1.1.3-4 .6-6.5.9-4.3.4-10.1 1.3-14.5 2.1-1.1.2-4 .7-6.5 1-7.4.9-30.9 5.4-46.5 9-3.8.8-7.7 1.7-8.5 1.9-13.8 3-56.5 15.8-69.5 20.8-2.2.8-7.4 2.8-11.5 4.3-7.1 2.5-28.1 11-34.5 13.9-44.2 20-79.7 40.1-120.5 68.2-7.9 5.5-23.9 17.1-25 18.3-.3.3-4.6 3.7-9.7 7.7-5 3.9-10.4 8.2-11.9 9.5-4 3.3-17.7 15-19 16.3-.6.5-4.7 4.1-9 7.9-10.1 8.9-52.8 51.7-61.9 62-3.9 4.4-7.9 8.9-9 10.2-1.1 1.2-3.8 4.3-6 7-2.2 2.6-6.9 8.1-10.3 12.3-3.5 4.2-12.4 15.7-19.8 25.6-7.4 9.9-13.8 18.4-14.2 19-.5.5-5.5 8.2-11.3 17-13.9 21.1-16.2 24.6-17.5 27-.6 1.1-3.8 6.7-7.1 12.5-21.8 38-38 73-52.9 114.5-4.5 12.5-12.8 38.4-14.7 46-.3 1.1-1.8 6.9-3.5 13-2.9 10.8-7 27.6-7.8 32.5-.3 1.4-1.3 6.5-2.4 11.5-1 4.9-2.1 10.8-2.4 13-.4 2.3-.8 5.2-1.1 6.5-.3 1.3-.7 4-1 6-.3 2-.7 4.5-.9 5.6-.2 1.2-.7 4.5-1.1 7.5-.3 3-1 8.1-1.5 11.4-1.3 8.7-2.7 22.6-4.5 45-2.4 29.9-2.4 94.5 0 121.4.2 1.8.6 7.6 1 12.9.4 5.3.8 10.3 1 11.1.1.9.6 5 1 9.1s.9 8.3 1 9.2c.2.9.7 4.8 1 8.5.4 3.7.9 7 1 7.3.2.3.6 2.9 1 5.9.4 3 .9 6.3 1.1 7.5.2 1.2.7 4.1 1 6.6.3 2.5.8 5.4 1 6.5.3 1.1 1.3 6.5 2.4 12 3.3 17.8 10.3 47.1 15.1 64 3.2 11 11.9 38.8 12.9 41 .5 1.1 1.8 4.7 3 8 1.1 3.3 2.3 6.7 2.7 7.5.3.8.7 1.9.9 2.5.1.5 2.9 7.5 6.2 15.5 42.9 105.3 110.1 199 201.8 281.6 17.6 15.9 45.7 38.6 61.5 49.7 3 2.1 9.5 6.7 14.4 10.2 20.9 14.8 51.1 32.8 79 46.9 42.1 21.4 81.2 36.6 130.5 50.6 3.2.9 22 5.5 26.5 6.5 8.5 1.8 16.4 3.5 18.5 3.9 1.4.3 6.1 1.2 10.5 2s9.6 1.8 11.5 2.1c1.9.3 4.6.8 6 1 1.4.3 4.5.7 7 1 2.5.3 5.6.8 7 1 2.5.4 7.9 1.1 16 2 2.5.3 5.9.8 7.5 1 1.7.2 6.4.7 10.5 1 4.1.4 9.1.8 11 1 25.5 2.6 103.9 2.6 125.5.1 1.7-.2 6.6-.7 11-1.1 11.5-1 15.5-1.4 19.5-1.9 1.9-.3 5.5-.8 8-1.1 2.5-.3 5.6-.8 7-1 1.4-.2 4.5-.7 7-1 6.7-.9 21.9-3.4 27-4.5 2.5-.5 5.6-1.2 7-1.4 38.2-6.9 96.1-24.9 137.5-42.8 18.5-8 47.7-22.5 61.8-30.7 4.9-2.8 9.1-5.1 9.3-5.1.9 0 31.9-19.4 41.4-25.9 16.3-11.1 25.8-17.9 27-19.1.3-.3 2.1-1.7 4-3 4-2.8 31-24.1 35.5-28.1 1.6-1.4 6.8-5.9 11.5-10 13.6-11.7 19.3-17.1 41-38.9 22.2-22.3 31.5-32.3 48.4-52.1 6-7.1 11.1-12.7 11.4-12.5.2.3.4 55.6.4 123V3110H3422V1671l-2.7-.1c-1.6 0-42.6-.1-91.3-.1h-88.5l-.1 131.1c-.1 72.2-.3 131.4-.5 131.6-.2.1-5.1-6-10.9-13.7-5.8-7.7-11.2-14.8-12-15.8-.8-1-2.2-2.7-3-3.7-26.2-32.1-39.6-47.1-62.9-70.3-33.2-33-68.7-62.4-102.1-84.5-4.1-2.8-7.6-5.3-7.8-5.8-.2-.4-.8-.7-1.3-.7s-5-2.7-10-6-9.2-6-9.5-6c-.2 0-3.4-1.8-7-4s-6.7-4-6.9-4c-.2 0-3.2-1.6-6.7-3.6-29.2-16.8-77.3-37.5-114.3-49.2-11.5-3.7-43.6-12.6-49-13.6-1.1-.2-4.9-1.1-8.5-1.9-13.9-3.3-49.6-9.4-65-11.2-2.5-.2-6.5-.7-9-1-8.4-1-12.5-1.4-21.5-2.1-4.9-.3-10.6-.8-12.5-.9-5.6-.5-59-2.2-59.3-1.9zm53.8 179.8c18.5.9 25.4 1.5 40.5 3.2 10.8 1.2 19.6 2.4 29 4 11.8 2 14.3 2.4 16 2.9.8.3 3.3.7 5.5 1 2.2.4 12.9 2.9 23.8 5.6 65.1 16.2 128.2 45.2 179.7 82.8 12.2 8.9 22.5 16.5 23 17.1.3.3 4.6 3.9 9.5 8 35 28.9 70.6 66.1 96.7 101 26 34.9 50.9 77.3 65.3 111.5 2 4.9 4.3 10.3 5.1 12 6.4 14.6 19.5 54.2 23.9 72.5 1.9 7.7 7.4 32.3 7.9 35 .3 1.9.8 4.6 1.1 6 .3 1.4.7 3.9.9 5.5.3 1.7.7 4.2 1 5.5.3 1.4.8 4.1 1 6 .3 1.9 1 7.3 1.6 12 .6 4.7 1.3 9.6 1.5 11 .2 1.4.7 5.6 1 9.5.3 3.8.8 8.3 1 10 1.3 10.2 2 33.6 1.9 64.5 0 31-.4 43.8-1.9 58.9-.2 2-.7 6.5-1 10.1-.6 6-2.9 23.2-3.9 29-.3 1.4-.7 4.7-1.1 7.5-.3 2.7-.8 5.7-1 6.5-.2.8-.6 3.2-.9 5.2-.3 2.1-1 5.7-1.5 8-.6 2.4-1.2 5.4-1.5 6.8-.2 1.4-1.6 7.4-3.1 13.5-1.4 6-2.8 11.7-3 12.5-.1.8-.9 3.5-1.6 6-.7 2.5-1.3 5.1-1.5 5.8-1 5.4-14.9 46.5-18.3 54.2-.8 1.9-1.5 3.7-1.6 4-.3 1-1.9 4.7-7.3 17-31.7 72.5-79.5 137.4-139.2 188.9-4.1 3.6-7.7 6.8-8 7.1-1 1-14.6 11.6-22.5 17.5-23.5 17.6-59.6 40-82.5 51.4-3.6 1.8-7.2 3.7-8 4.2-2.6 1.6-24.2 11.5-34.1 15.8-15.7 6.6-31.5 12.5-46.4 17.4-20.8 6.8-35.6 10.8-62 16.7-11.9 2.7-41.2 7.4-53.5 8.5-3.6.4-8.1.8-10 1.1-16.3 1.9-78.2 2.6-95.5 1.1-11-1-18.5-1.7-22-2.2-1.6-.2-5.7-.7-9-1-3.3-.4-12.3-1.8-20-3.1-17.8-3-18.8-3.2-26.1-4.9-3.4-.8-7.3-1.6-8.5-1.9-1.3-.2-5.9-1.4-10.1-2.6-4.3-1.1-8.5-2.3-9.5-2.5-1-.2-7.2-2-13.8-4-42.7-12.9-87.6-33.1-128-57.5-12.5-7.5-36.6-23.7-44.7-29.9-2.5-2-6.1-4.7-7.9-6.1-3.5-2.7-18-14.4-22.5-18.2-12.8-10.9-43.5-41.2-53.5-52.8-3.5-4.1-6.7-7.7-7-8-2-1.6-24.1-30.1-31.6-40.7-24.2-34.1-49.4-78.6-64.3-113.3-1.8-4.1-4-9.3-5-11.5-11.5-25.8-28.7-82.7-33.9-112-.6-3.3-1.3-7.1-1.6-8.5-.5-2.2-1.9-11.1-3-18-.2-1.4-.6-4.8-1-7.5-.3-2.8-.8-6.4-1-8-2.6-20.5-3.8-40.9-3.8-67 0-19.2.9-45.7 1.7-50.2.2-1 .7-5.4 1-9.8.4-4.4.9-9.1 1.1-10.5.2-1.4.6-4.8 1-7.5.9-7.1 1.2-8.8 3-19.5.9-5.2 1.8-10.7 2-12.2.2-1.5.6-3.5.9-4.5.3-1 .8-3.4 1.1-5.3 2.4-14.3 15.8-62 21.5-76.5.4-1.1 2.5-6.5 4.5-12 2.1-5.5 4.4-11.4 5.1-13 9-21.2 11.2-26 19.1-42 14.3-28.9 29.8-54.9 48.8-82 3.8-5.5 7.5-10.7 8.2-11.5.6-.8 4.1-5.3 7.8-10 18.7-24.2 42.9-50.4 63.6-69.1 8.5-7.6 16-14.2 18.5-16.1 1.6-1.2 3.1-2.5 3.4-2.8 1-1 14.5-11.6 22-17.1 6.6-4.9 25.6-17.8 36-24.4 27.2-17.4 77.4-41.9 103.5-50.6 3.3-1.1 6.9-2.4 8-2.9 9.9-4.3 55.2-16.8 70.5-19.5 1.9-.3 5.4-1 7.8-1.6 2.3-.5 5.9-1.2 8-1.5 2-.3 4.4-.7 5.2-.9.8-.2 3.5-.7 6-1 2.5-.3 5.6-.8 7-1 7.6-1.2 16.5-2.2 26-3.1 3-.2 7.5-.6 10-.9 2.5-.2 11-.7 19-1.1 8-.3 14.6-.7 14.7-.8.4-.3 35.2.3 45.8.8z"/></svg>